HIERARCHY
ROOT Hips
{
	OFFSET 0.000000 104.274902 0.000000
	CHANNELS 6 Xposition Yposition Zposition Xrotation Yrotation Zrotation
	JOINT Spine
	{
		OFFSET 0.000000 10.181549 0.131524
		CHANNELS 6 Xposition Yposition Zposition Xrotation Yrotation Zrotation
		JOINT Spine1
		{
			OFFSET 0.000000 9.893990 -1.470706
			CHANNELS 3 Xrotation Yrotation Zrotation
			JOINT Spine2
			{
				OFFSET 0.000000 9.220787 -1.370637
				CHANNELS 3 Xrotation Yrotation Zrotation
				JOINT Neck
				{
					OFFSET 0.000000 16.740372 -2.049022
					CHANNELS 6 Xposition Yposition Zposition Xrotation Yrotation Zrotation
					JOINT Head
					{
						OFFSET 0.000000 9.617859 1.684976
						CHANNELS 6 Xposition Yposition Zposition Xrotation Yrotation Zrotation
						JOINT HeadTop_End
						{
							OFFSET 0.000000 22.037384 7.501072
							CHANNELS 6 Xposition Yposition Zposition Xrotation Yrotation Zrotation
							End Site
							{
								OFFSET 0.000000 23.106567 -2.828246
							}
						}
					}
				}
				JOINT RightShoulder
				{
					OFFSET -4.570000 11.014877 -2.160840
					CHANNELS 6 Xposition Yposition Zposition Xrotation Yrotation Zrotation
					JOINT RightArm
					{
						OFFSET -10.592867 -0.524796 -2.232105
						CHANNELS 3 Xrotation Yrotation Zrotation
						JOINT RightForeArm
						{
							OFFSET -27.841497 0.000000 -0.000002
							CHANNELS 3 Xrotation Yrotation Zrotation
							JOINT RightHand
							{
								OFFSET -28.328812 0.000000 -0.000001
								CHANNELS 3 Xrotation Yrotation Zrotation
								JOINT RightHandThumb1
								{
									OFFSET -2.464798 -1.573990 2.681911
									CHANNELS 6 Xposition Yposition Zposition Xrotation Yrotation Zrotation
									JOINT RightHandThumb2
									{
										OFFSET -3.244781 -1.873383 1.873376
										CHANNELS 3 Xrotation Yrotation Zrotation
										JOINT RightHandThumb3
										{
											OFFSET -2.646263 -1.527817 1.527818
											CHANNELS 6 Xposition Yposition Zposition Xrotation Yrotation Zrotation
											JOINT RightHandThumb4
											{
												OFFSET -1.994591 -1.151581 1.151575
												CHANNELS 6 Xposition Yposition Zposition Xrotation Yrotation Zrotation
												End Site
												{
													OFFSET -1.860176 -1.142715 1.365483
												}
											}
										}
									}
								}
								JOINT RightHandIndex1
								{
									OFFSET -9.108299 -0.517883 2.259803
									CHANNELS 6 Xposition Yposition Zposition Xrotation Yrotation Zrotation
									JOINT RightHandIndex2
									{
										OFFSET -3.699997 0.000000 0.000000
										CHANNELS 3 Xrotation Yrotation Zrotation
										JOINT RightHandIndex3
										{
											OFFSET -2.850006 0.000000 0.000000
											CHANNELS 3 Xrotation Yrotation Zrotation
											JOINT RightHandIndex4
											{
												OFFSET -2.772194 0.000000 0.000000
												CHANNELS 3 Xrotation Yrotation Zrotation
												End Site
												{
													OFFSET -2.772202 0.000000 -0.000484
												}
											}
										}
									}
								}
								JOINT RightHandMiddle1
								{
									OFFSET -9.532501 0.000000 -0.000000
									CHANNELS 6 Xposition Yposition Zposition Xrotation Yrotation Zrotation
									JOINT RightHandMiddle2
									{
										OFFSET -3.699997 0.000000 0.000000
										CHANNELS 3 Xrotation Yrotation Zrotation
										JOINT RightHandMiddle3
										{
											OFFSET -2.949997 0.000000 0.000000
											CHANNELS 3 Xrotation Yrotation Zrotation
											JOINT RightHandMiddle4
											{
												OFFSET -2.946594 0.000000 0.000000
												CHANNELS 3 Xrotation Yrotation Zrotation
												End Site
												{
													OFFSET -2.946602 0.000000 -0.000982
												}
											}
										}
									}
								}
								JOINT RightHandRing1
								{
									OFFSET -9.103600 -0.043106 -1.865100
									CHANNELS 6 Xposition Yposition Zposition Xrotation Yrotation Zrotation
									JOINT RightHandRing2
									{
										OFFSET -3.379303 0.000000 0.000000
										CHANNELS 3 Xrotation Yrotation Zrotation
										JOINT RightHandRing3
										{
											OFFSET -2.889694 0.000000 0.000000
											CHANNELS 3 Xrotation Yrotation Zrotation
											JOINT RightHandRing4
											{
												OFFSET -2.638802 0.000000 0.000000
												CHANNELS 3 Xrotation Yrotation Zrotation
												End Site
												{
													OFFSET -2.638802 0.000000 0.004218
												}
											}
										}
									}
								}
								JOINT RightHandPinky1
								{
									OFFSET -8.076698 -0.486725 -3.806299
									CHANNELS 6 Xposition Yposition Zposition Xrotation Yrotation Zrotation
									JOINT RightHandPinky2
									{
										OFFSET -3.600006 0.000000 0.000000
										CHANNELS 3 Xrotation Yrotation Zrotation
										JOINT RightHandPinky3
										{
											OFFSET -2.099998 0.000000 0.000000
											CHANNELS 3 Xrotation Yrotation Zrotation
											JOINT RightHandPinky4
											{
												OFFSET -2.115791 0.000000 0.000000
												CHANNELS 3 Xrotation Yrotation Zrotation
												End Site
												{
													OFFSET -2.115799 0.000000 0.000174
												}
											}
										}
									}
								}
							}
						}
					}
				}
				JOINT LeftShoulder
				{
					OFFSET 4.570400 11.014679 -2.160816
					CHANNELS 6 Xposition Yposition Zposition Xrotation Yrotation Zrotation
					JOINT LeftArm
					{
						OFFSET 10.592373 -0.524597 -2.232116
						CHANNELS 3 Xrotation Yrotation Zrotation
						JOINT LeftForeArm
						{
							OFFSET 27.841488 0.000000 0.000001
							CHANNELS 3 Xrotation Yrotation Zrotation
							JOINT LeftHand
							{
								OFFSET 28.328808 0.000000 -0.000000
								CHANNELS 3 Xrotation Yrotation Zrotation
								JOINT LeftHandThumb1
								{
									OFFSET 2.466103 -1.576202 2.681698
									CHANNELS 6 Xposition Yposition Zposition Xrotation Yrotation Zrotation
									JOINT LeftHandThumb2
									{
										OFFSET 3.243317 -1.872528 1.872530
										CHANNELS 3 Xrotation Yrotation Zrotation
										JOINT LeftHandThumb3
										{
											OFFSET 2.647881 -1.528763 1.528754
											CHANNELS 6 Xposition Yposition Zposition Xrotation Yrotation Zrotation
											JOINT LeftHandThumb4
											{
												OFFSET 1.998924 -1.154083 1.154080
												CHANNELS 6 Xposition Yposition Zposition Xrotation Yrotation Zrotation
												End Site
												{
													OFFSET 1.884041 -1.149155 1.337651
												}
											}
										}
									}
								}
								JOINT LeftHandIndex1
								{
									OFFSET 9.109299 -0.518005 2.259900
									CHANNELS 6 Xposition Yposition Zposition Xrotation Yrotation Zrotation
									JOINT LeftHandIndex2
									{
										OFFSET 3.699997 0.000000 0.000000
										CHANNELS 3 Xrotation Yrotation Zrotation
										JOINT LeftHandIndex3
										{
											OFFSET 2.850006 0.000000 0.000000
											CHANNELS 3 Xrotation Yrotation Zrotation
											JOINT LeftHandIndex4
											{
												OFFSET 2.774895 0.000000 0.000000
												CHANNELS 3 Xrotation Yrotation Zrotation
												End Site
												{
													OFFSET 2.774902 0.000000 -0.000072
												}
											}
										}
									}
								}
								JOINT LeftHandMiddle1
								{
									OFFSET 9.533401 0.000000 0.000000
									CHANNELS 6 Xposition Yposition Zposition Xrotation Yrotation Zrotation
									JOINT LeftHandMiddle2
									{
										OFFSET 3.699997 0.000000 0.000000
										CHANNELS 3 Xrotation Yrotation Zrotation
										JOINT LeftHandMiddle3
										{
											OFFSET 2.949997 0.000000 0.000000
											CHANNELS 3 Xrotation Yrotation Zrotation
											JOINT LeftHandMiddle4
											{
												OFFSET 2.952896 0.000000 0.000000
												CHANNELS 3 Xrotation Yrotation Zrotation
												End Site
												{
													OFFSET 2.952904 0.000000 0.000165
												}
											}
										}
									}
								}
								JOINT LeftHandRing1
								{
									OFFSET 9.104500 -0.042999 -1.865101
									CHANNELS 6 Xposition Yposition Zposition Xrotation Yrotation Zrotation
									JOINT LeftHandRing2
									{
										OFFSET 3.149994 0.000000 0.000000
										CHANNELS 3 Xrotation Yrotation Zrotation
										JOINT LeftHandRing3
										{
											OFFSET 2.950005 0.000000 0.000000
											CHANNELS 3 Xrotation Yrotation Zrotation
											JOINT LeftHandRing4
											{
												OFFSET 2.644302 0.000000 0.000000
												CHANNELS 3 Xrotation Yrotation Zrotation
												End Site
												{
													OFFSET 2.644302 0.000000 0.000083
												}
											}
										}
									}
								}
								JOINT LeftHandPinky1
								{
									OFFSET 8.077805 -0.486893 -3.806302
									CHANNELS 6 Xposition Yposition Zposition Xrotation Yrotation Zrotation
									JOINT LeftHandPinky2
									{
										OFFSET 3.600006 0.000000 0.000000
										CHANNELS 3 Xrotation Yrotation Zrotation
										JOINT LeftHandPinky3
										{
											OFFSET 2.099998 0.000000 0.000000
											CHANNELS 3 Xrotation Yrotation Zrotation
											JOINT LeftHandPinky4
											{
												OFFSET 2.125496 0.000000 0.000000
												CHANNELS 3 Xrotation Yrotation Zrotation
												End Site
												{
													OFFSET 2.125504 0.000000 -0.001254
												}
											}
										}
									}
								}
							}
						}
					}
				}
			}
		}
	}
	JOINT RightUpLeg
	{
		OFFSET -8.207800 -6.751701 -1.599544
		CHANNELS 6 Xposition Yposition Zposition Xrotation Yrotation Zrotation
		JOINT RightLeg
		{
			OFFSET 0.000004 -44.370152 0.345934
			CHANNELS 3 Xrotation Yrotation Zrotation
			JOINT RightFoot
			{
				OFFSET 0.000004 -44.423664 -3.043535
				CHANNELS 3 Xrotation Yrotation Zrotation
				JOINT RightToeBase
				{
					OFFSET 0.000001 -8.728691 10.710592
					CHANNELS 3 Xrotation Yrotation Zrotation
					JOINT RightToe_End
					{
						OFFSET 0.000000 -0.000665 9.278101
						CHANNELS 3 Xrotation Yrotation Zrotation
						End Site
						{
							OFFSET 0.000000 -0.000665 9.278103
						}
					}
				}
			}
		}
	}
	JOINT LeftUpLeg
	{
		OFFSET 8.207800 -6.751701 -1.599544
		CHANNELS 6 Xposition Yposition Zposition Xrotation Yrotation Zrotation
		JOINT LeftLeg
		{
			OFFSET 0.000004 -44.370037 0.346940
			CHANNELS 3 Xrotation Yrotation Zrotation
			JOINT LeftFoot
			{
				OFFSET 0.000004 -44.423611 -3.044388
				CHANNELS 3 Xrotation Yrotation Zrotation
				JOINT LeftToeBase
				{
					OFFSET 0.000001 -8.728690 10.710592
					CHANNELS 3 Xrotation Yrotation Zrotation
					JOINT LeftToe_End
					{
						OFFSET 0.000000 -0.000680 9.278101
						CHANNELS 3 Xrotation Yrotation Zrotation
						End Site
						{
							OFFSET 0.000000 -0.000680 9.278101
						}
					}
				}
			}
		}
	}
}
MOTION
Frames: 4
Frame Time: 0.033333
-0.078336 100.718811 1.364331 -3.667137 1.496721 -1.161296 -0.000000 10.181550 0.131525 3.718799 1.237762 -0.304963 2.239060 0.924918 -1.306674 2.220750 0.890422 -1.333666 -0.000000 16.740368 -2.049021 -5.848177 0.348347 -2.098297 0.000001 9.617872 1.684978 -11.952116 -1.237931 0.218902 -0.000001 22.037369 7.501075 -0.000000 0.000000 0.000000 -4.570001 11.014867 -2.160840 1.704274 5.660958 10.773473 -0.665456 11.789224 55.750965 -0.000013 25.967640 0.000010 32.590316 -4.323031 26.740991 -2.464785 -1.573982 2.681912 -2.399179 -19.981575 -9.251640 5.563988 -19.068029 -0.924516 -2.646268 -1.527800 1.527828 -0.794378 -5.065682 -2.648893 -1.994595 -1.151585 1.151578 -0.000002 0.000000 -0.000001 -9.108293 -0.517875 2.259801 0.515269 -2.631352 22.155151 0.366039 -2.230372 18.637744 0.092072 -1.130096 9.315302 -0.000000 -0.000000 0.000000 -9.532496 -0.000010 -0.000004 0.515269 -2.631352 22.155149 0.366037 -2.230371 18.637749 0.092072 -1.130097 9.315304 0.000001 -0.000002 0.000004 -9.103574 -0.043100 -1.865105 0.515269 -2.631352 22.155149 0.366037 -2.230372 18.637747 0.092070 -1.130098 9.315305 0.000002 -0.000002 0.000003 -8.076695 -0.486710 -3.806303 0.515265 -2.631349 22.155149 0.366040 -2.230378 18.637744 0.092071 -1.130094 9.315318 0.000004 -0.000003 0.000003 4.570403 11.014668 -2.160815 0.741800 2.533779 -11.606081 -0.209735 -21.849055 -50.957644 -0.000004 -26.854093 0.000001 14.397733 -0.315195 -22.224414 2.466090 -1.576193 2.681700 -2.165978 21.659701 8.959847 5.142513 23.266676 1.828483 2.647876 -1.528740 1.528748 0.105694 9.215974 3.273015 1.998928 -1.154051 1.154081 0.000002 -0.000002 -0.000001 9.109290 -0.518018 2.259901 0.329427 2.108322 -17.761043 0.514821 2.617015 -22.255741 0.129842 1.333570 -11.121996 -0.000005 0.000002 -0.000002 9.533393 -0.000012 0.000001 0.328845 2.106488 -17.745038 0.515544 2.618802 -22.271763 0.129833 1.333571 -11.121997 0.000002 0.000002 -0.000000 9.104493 -0.043000 -1.865097 0.329427 2.108322 -17.761040 0.514818 2.617016 -22.255743 0.129841 1.333570 -11.121995 0.000000 0.000003 -0.000003 8.077801 -0.486901 -3.806299 1.554694 5.974084 -17.336999 0.519683 -1.441757 -22.729290 0.129826 1.333554 -11.121993 0.000001 0.000001 0.000001 -8.207799 -6.751714 -1.599541 -12.954666 -10.361872 0.680655 34.179650 -5.363574 2.884493 -17.092239 0.780658 -3.294542 -0.000015 0.000004 -0.000000 0.000000 0.000001 0.000000 8.207798 -6.751714 -1.599549 -25.224047 5.499875 4.839535 53.817198 8.281423 2.690179 -5.765677 1.028270 0.451877 -1.179077 -0.000012 -0.000001 0.000001 0.000000 -0.000001 
-0.237277 101.620140 4.033605 -4.039621 2.083899 -1.083771 0.000000 10.181568 0.131524 3.956337 2.279360 -0.741460 2.438193 1.827804 -1.537955 2.411469 1.797223 -1.594337 -0.000000 16.740358 -2.049019 -5.560742 -0.152792 -2.113055 -0.000000 9.617840 1.684979 -11.495000 -4.003111 1.495251 0.000000 22.037415 7.501077 -0.000001 0.000000 -0.000000 -4.570003 11.014880 -2.160840 1.701948 5.704044 10.734893 -0.170167 12.488011 54.122043 -0.000010 27.316560 0.000032 34.925353 -1.783407 26.126175 -2.464797 -1.573980 2.681913 -2.399187 -19.981578 -9.251644 5.563989 -19.068030 -0.924516 -2.646269 -1.527799 1.527815 -0.794378 -5.065674 -2.648893 -1.994584 -1.151596 1.151569 -0.000001 -0.000005 -0.000003 -9.108308 -0.517874 2.259800 0.515264 -2.631352 22.155153 0.366041 -2.230371 18.637740 0.092067 -1.130098 9.315309 0.000003 -0.000001 0.000003 -9.532485 -0.000009 -0.000002 0.515264 -2.631352 22.155151 0.366041 -2.230372 18.637747 0.092067 -1.130098 9.315307 0.000002 -0.000001 0.000002 -9.103601 -0.043099 -1.865102 0.515264 -2.631352 22.155151 0.366041 -2.230371 18.637744 0.092070 -1.130098 9.315306 0.000002 -0.000000 0.000002 -8.076699 -0.486724 -3.806300 0.515261 -2.631349 22.155155 0.366042 -2.230378 18.637740 0.092071 -1.130092 9.315322 0.000002 -0.000001 0.000002 4.570398 11.014682 -2.160815 0.743722 2.522518 -11.621625 0.298726 -21.718262 -50.874664 -0.000008 -26.954573 -0.000002 13.386824 -0.575292 -22.833363 2.466111 -1.576192 2.681699 -2.165990 21.659700 8.959851 5.142510 23.266672 1.828487 2.647879 -1.528767 1.528754 0.105697 9.215973 3.273014 1.998920 -1.154068 1.154077 0.000000 -0.000002 -0.000001 9.109309 -0.518016 2.259900 0.329422 2.108321 -17.761041 0.514817 2.617018 -22.255743 0.129839 1.333569 -11.121996 -0.000004 -0.000002 -0.000001 9.533412 0.000006 -0.000001 0.328837 2.106489 -17.745041 0.515547 2.618801 -22.271763 0.129827 1.333571 -11.121994 0.000002 0.000001 -0.000003 9.104508 -0.043003 -1.865103 0.329422 2.108321 -17.761040 0.514816 2.617019 -22.255741 0.129839 1.333568 -11.121997 0.000001 0.000000 -0.000003 8.077811 -0.486879 -3.806301 1.554686 5.974089 -17.337003 0.519680 -1.441759 -22.729287 0.129824 1.333557 -11.121991 0.000002 0.000000 -0.000002 -8.207799 -6.751684 -1.599541 -9.232320 -11.029179 1.130184 31.234858 -5.432664 2.401769 -16.985528 0.564463 -2.447670 -0.000017 0.000004 -0.000002 0.000000 0.000000 0.000000 8.207799 -6.751686 -1.599542 -25.860583 7.206808 4.983403 45.090716 7.156115 2.126096 -6.115937 0.694107 0.113749 0.000003 -0.000004 0.000002 0.000000 0.000001 0.000000 
-0.383492 102.398750 6.668630 -4.286041 2.638377 -1.082035 0.000000 10.181544 0.131525 4.086928 3.260806 -1.107142 2.542256 2.662862 -1.740543 2.502999 2.635661 -1.825288 0.000001 16.740351 -2.049020 -5.336155 -0.616665 -2.129194 -0.000001 9.617867 1.684974 -10.970716 -6.581957 2.734868 -0.000000 22.037369 7.501080 -0.000002 0.000000 0.000000 -4.569998 11.014871 -2.160839 1.697800 5.737284 10.694364 0.452240 13.077469 52.513216 -0.000012 28.731122 0.000017 36.273772 0.224745 25.183700 -2.464797 -1.573999 2.681908 -2.399185 -19.981580 -9.251643 5.563988 -19.068039 -0.924520 -2.646260 -1.527811 1.527814 -0.794378 -5.065679 -2.648894 -1.994599 -1.151596 1.151570 -0.000001 0.000006 0.000000 -9.108293 -0.517874 2.259800 0.515267 -2.631353 22.155151 0.366041 -2.230371 18.637742 0.092071 -1.130097 9.315301 -0.000000 0.000000 0.000003 -9.532489 0.000009 -0.000001 0.515267 -2.631353 22.155153 0.366042 -2.230371 18.637746 0.092071 -1.130097 9.315305 0.000002 -0.000000 0.000002 -9.103581 -0.043098 -1.865100 0.515268 -2.631352 22.155153 0.366040 -2.230372 18.637746 0.092071 -1.130096 9.315304 0.000000 -0.000001 0.000004 -8.076692 -0.486723 -3.806302 0.515264 -2.631349 22.155153 0.366040 -2.230378 18.637742 0.092070 -1.130093 9.315321 -0.000000 -0.000001 0.000005 4.570402 11.014670 -2.160813 0.745163 2.514526 -11.631312 1.196668 -21.606805 -50.588329 -0.000007 -27.167513 -0.000007 12.640928 -0.917789 -23.789701 2.466107 -1.576206 2.681695 -2.165977 21.659701 8.959852 5.142509 23.266676 1.828487 2.647882 -1.528738 1.528757 0.105698 9.215969 3.273012 1.998947 -1.154069 1.154088 -0.000000 -0.000003 -0.000003 9.109305 -0.518012 2.259896 0.329426 2.108323 -17.761041 0.514813 2.617017 -22.255743 0.129839 1.333571 -11.121994 -0.000001 -0.000001 -0.000003 9.533408 0.000005 -0.000003 0.328847 2.106489 -17.745041 0.515545 2.618804 -22.271766 0.129824 1.333569 -11.121997 -0.000001 0.000000 0.000000 9.104505 -0.042996 -1.865104 0.329426 2.108323 -17.761040 0.514813 2.617018 -22.255741 0.129841 1.333571 -11.121995 -0.000003 0.000000 -0.000003 8.077811 -0.486884 -3.806307 1.554693 5.974088 -17.336999 0.519687 -1.441757 -22.729290 0.129821 1.333557 -11.121997 -0.000001 0.000002 0.000001 -8.207800 -6.751725 -1.599542 -5.765270 -11.612049 1.701108 28.477712 -5.539689 1.951347 -16.845267 0.348053 -1.560975 -0.000021 -0.000006 0.000001 0.000000 -0.000000 0.000000 8.207799 -6.751710 -1.599542 -25.973615 8.959437 5.048608 35.336475 5.847401 1.597948 -6.123823 0.383385 -0.445502 0.000007 0.000006 0.000001 0.000000 0.000001 0.000000 
-0.524046 102.904503 9.384573 -4.261946 3.135015 -1.243472 -0.000000 10.181570 0.131524 4.039576 4.156039 -1.346983 2.494542 3.389702 -1.899199 2.438578 3.363479 -2.011404 0.000002 16.740343 -2.049019 -5.258886 -1.009519 -2.148605 0.000001 9.617869 1.684981 -10.468409 -8.797100 3.880599 -0.000001 22.037399 7.501069 -0.000001 -0.000000 0.000000 -4.569997 11.014854 -2.160839 1.687051 5.732122 10.644781 1.129446 13.473416 51.026175 -0.000010 30.265753 0.000022 36.094124 1.381540 23.933953 -2.464781 -1.574000 2.681911 -2.399183 -19.981578 -9.251644 5.563989 -19.068030 -0.924516 -2.646259 -1.527797 1.527823 -0.794380 -5.065679 -2.648894 -1.994579 -1.151598 1.151574 0.000001 -0.000001 -0.000005 -9.108300 -0.517874 2.259803 0.515265 -2.631352 22.155155 0.366041 -2.230372 18.637746 0.092070 -1.130097 9.315301 0.000000 -0.000000 0.000004 -9.532485 -0.000009 -0.000001 0.515265 -2.631352 22.155155 0.366041 -2.230372 18.637751 0.092070 -1.130097 9.315301 0.000000 -0.000002 0.000006 -9.103570 -0.043114 -1.865099 0.515265 -2.631353 22.155155 0.366042 -2.230372 18.637747 0.092070 -1.130097 9.315299 -0.000000 -0.000000 0.000006 -8.076692 -0.486725 -3.806298 0.515263 -2.631349 22.155153 0.366040 -2.230378 18.637746 0.092070 -1.130092 9.315315 0.000000 -0.000000 0.000002 4.570401 11.014647 -2.160814 0.746361 2.501100 -11.630256 2.575187 -21.374520 -50.024555 -0.000002 -27.460289 0.000004 12.251102 -1.160937 -25.032862 2.466116 -1.576206 2.681697 -2.165980 21.659706 8.959846 5.142513 23.266676 1.828483 2.647908 -1.528730 1.528757 0.105694 9.215969 3.273010 1.998947 -1.154064 1.154086 0.000001 -0.000002 -0.000003 9.109304 -0.518012 2.259897 0.329427 2.108327 -17.761041 0.514819 2.617018 -22.255745 0.129841 1.333572 -11.121993 0.000002 0.000002 -0.000000 9.533404 0.000005 -0.000002 0.328848 2.106489 -17.745041 0.515546 2.618802 -22.271765 0.129833 1.333571 -11.121996 -0.000001 -0.000001 0.000002 9.104511 -0.042994 -1.865103 0.329427 2.108327 -17.761040 0.514819 2.617017 -22.255741 0.129840 1.333571 -11.121997 -0.000002 -0.000000 -0.000000 8.077815 -0.486884 -3.806305 1.554694 5.974090 -17.337003 0.519678 -1.441757 -22.729288 0.129821 1.333558 -11.121991 -0.000002 -0.000001 0.000002 -8.207801 -6.751686 -1.599543 -2.721268 -11.997000 2.444550 26.139583 -5.740717 1.592247 -16.897550 0.155158 -0.703179 -0.000000 0.000000 0.000000 -0.000000 0.000001 -0.000000 8.207799 -6.751684 -1.599541 -25.474919 10.683123 5.031413 24.387938 4.371803 1.040541 -5.912412 0.186778 -1.172985 -0.000005 0.000004 0.000001 0.000001 0.000001 0.000000 
